<?xml version="1.0" standalone="no"?><!DOCTYPE svg PUBLIC "-//W3C//DTD SVG 1.1//EN" "http://www.w3.org/Graphics/SVG/1.1/DTD/svg11.dtd"><svg t="1514189404825" class="icon" style="" viewBox="0 0 1024 1024" version="1.1" xmlns="http://www.w3.org/2000/svg" p-id="3026" xmlns:xlink="http://www.w3.org/1999/xlink" width="200" height="200"><defs><style type="text/css"></style></defs><path d="M146.386345 0a81.949268 81.949268 0 0 0-81.583423 81.583423v860.711206a81.949268 81.949268 0 0 0 81.583423 81.583423h731.120797a81.949268 81.949268 0 0 0 81.583422-81.583423v-617.546266l-302.350522-324.748363z" fill="#9B45E6" p-id="3027"></path><path d="M959.090564 326.37434v16.015879h-204.79187s-100.769958-20.812512-97.558652-108.777897a94.631892 94.631892 0 0 0 95.973324 92.802667z" fill="#2987C8" p-id="3028"></path><path d="M656.740042 0v233.571672a92.965265 92.965265 0 0 0 97.558652 92.802668H959.090564z" fill="#FFFFFF" p-id="3029"></path><path d="M539.913557 543.930134l-227.189711 30.40578v214.385137a82.843555 82.843555 0 0 0-39.999047-1.585328c-31.991108 6.381962-52.84427 27.194474-46.381009 46.381009 6.381962 20.812512 36.787742 30.40578 68.778849 23.983169 28.779802-4.796634 48.006987-22.39784 48.006987-39.999048v-171.174784l166.378151-20.812513v132.801715a84.266286 84.266286 0 0 0-39.999047 0c-33.576436 6.381962-54.388948 27.194474-48.006987 46.381009s36.787742 30.40578 70.404827 23.983169c28.779802-6.381962 49.592315-23.983169 48.006987-41.584375z" fill="#FFFFFF" p-id="3030"></path></svg>