<?xml version="1.0" standalone="no"?><!DOCTYPE svg PUBLIC "-//W3C//DTD SVG 1.1//EN" "http://www.w3.org/Graphics/SVG/1.1/DTD/svg11.dtd"><svg t="1514189459054" class="icon" style="" viewBox="0 0 1024 1024" version="1.1" xmlns="http://www.w3.org/2000/svg" p-id="4644" xmlns:xlink="http://www.w3.org/1999/xlink" width="200" height="200"><defs><style type="text/css"></style></defs><path d="M625.390933 132.437333v66.8672h309.930667v43.1104h-309.930667v69.973334h309.930667v43.1104h-309.930667v68.130133h309.930667v43.076267h-309.930667v68.130133h309.930667v43.076267h-309.930667v68.130133h309.930667v43.1104h-309.930667v68.096h309.930667v43.1104h-309.930667v89.361067H1024V132.437333H625.390933zM0 108.714667V914.773333l576.682667 108.680534V0L0 108.714667zM417.962667 686.08h-84.309334L279.893333 447.3856 212.411733 686.08H154.350933L70.587733 334.916267h83.114667l33.109333 218.692266 54.9888-241.220266h86.8352L375.466667 576.1024l49.9712-263.68H508.586667L417.962667 686.08v-0.034133z" fill="#00B6FF" p-id="4645"></path></svg>