<?xml version="1.0" standalone="no"?><!DOCTYPE svg PUBLIC "-//W3C//DTD SVG 1.1//EN" "http://www.w3.org/Graphics/SVG/1.1/DTD/svg11.dtd"><svg t="1514189477205" class="icon" style="" viewBox="0 0 1024 1024" version="1.1" xmlns="http://www.w3.org/2000/svg" p-id="5356" xmlns:xlink="http://www.w3.org/1999/xlink" width="200" height="200"><defs><style type="text/css"></style></defs><path d="M625.664 132.608V199.68h309.76v43.008h-309.76V312.32h309.76v43.008h-309.76v68.608h309.76v43.008h-309.76v68.608h309.76v43.008h-309.76v68.608h309.76v43.008h-309.76v68.096h309.76v43.008h-309.76v89.088H1024v-757.76h-398.336z" fill="#333333" p-id="5357"></path><path d="M0 914.944L577.024 1024V0L0 109.056m417.792 401.92c-21.504 17.92-52.224 27.136-92.16 27.136h-76.8V670.72h-76.8V302.08h158.208c36.352 0 65.536 9.728 87.04 28.672 21.504 18.944 32.768 48.64 32.768 88.064 0 43.52-10.752 74.24-32.256 92.16zM358.912 378.368c-9.728-8.192-23.552-12.288-40.96-12.288H248.832v108.544h69.632c17.408 0 31.232-4.608 40.96-13.312 9.728-8.704 14.848-23.04 14.848-41.984-0.512-18.944-5.632-32.768-15.36-40.96z" fill="#C35132" p-id="5358"></path></svg>