<?xml version="1.0" standalone="no"?><!DOCTYPE svg PUBLIC "-//W3C//DTD SVG 1.1//EN" "http://www.w3.org/Graphics/SVG/1.1/DTD/svg11.dtd"><svg t="1514189544355" class="icon" style="" viewBox="0 0 1024 1024" version="1.1" xmlns="http://www.w3.org/2000/svg" p-id="8186" xmlns:xlink="http://www.w3.org/1999/xlink" width="200" height="200"><defs><style type="text/css"></style></defs><path d="M176 1024l672 0c26.464 0 48-21.536 48-48l0-672c0-0.544-0.256-0.992-0.288-1.504-0.064-0.736-0.256-1.376-0.416-2.08-0.544-2.272-1.472-4.32-2.88-6.112-0.224-0.288-0.192-0.64-0.416-0.928l-256-288c-0.096-0.096-0.224-0.096-0.32-0.192-1.92-2.048-4.352-3.456-7.136-4.288-0.608-0.192-1.152-0.256-1.792-0.352-0.928-0.16-1.792-0.544-2.752-0.544l-448 0c-26.464 0-48 21.536-48 48l0 928c0 26.464 21.536 48 48 48zM640 58.08l204.384 229.92-188.384 0c-7.04 0-16-13.44-16-24l0-205.92zM160 48c0-8.832 7.2-16 16-16l432 0 0 232c0 25.888 20.96 56 48 56l208 0 0 656c0 8.832-7.2 16-16 16l-672 0c-8.96 0-16-7.04-16-16l0-928zM304 448l416 0c8.832 0 16-7.168 16-16s-7.168-16-16-16l-416 0c-8.832 0-16 7.168-16 16s7.168 16 16 16zM304 576l416 0c8.832 0 16-7.168 16-16s-7.168-16-16-16l-416 0c-8.832 0-16 7.168-16 16s7.168 16 16 16zM304 320l192 0c8.832 0 16-7.168 16-16s-7.168-16-16-16l-192 0c-8.832 0-16 7.168-16 16s7.168 16 16 16zM304 704l416 0c8.832 0 16-7.168 16-16s-7.168-16-16-16l-416 0c-8.832 0-16 7.168-16 16s7.168 16 16 16zM304 832l416 0c8.832 0 16-7.168 16-16s-7.168-16-16-16l-416 0c-8.832 0-16 7.168-16 16s7.168 16 16 16z" p-id="8187"></path></svg>