<?xml version="1.0" standalone="no"?><!DOCTYPE svg PUBLIC "-//W3C//DTD SVG 1.1//EN" "http://www.w3.org/Graphics/SVG/1.1/DTD/svg11.dtd"><svg t="1514189485601" class="icon" style="" viewBox="0 0 1024 1024" version="1.1" xmlns="http://www.w3.org/2000/svg" p-id="6045" xmlns:xlink="http://www.w3.org/1999/xlink" width="200" height="200"><defs><style type="text/css"></style></defs><path d="M577.536 892.672V157.44H1024v735.232z m157.696-656.384h-131.328v104.96h131.328z m0 157.44h-131.328v104.96h131.328z m0 157.44h-131.328v104.96h131.328z m0 157.44h-131.328v104.96h131.328zM919.04 236.288h-131.328v104.96h131.328z m0 157.44h-131.328v104.96h131.328z m0 157.44h-131.328v104.96h131.328z m0 157.44h-131.328v104.96h131.328zM0 157.44L551.424 0v1024L0 866.56z m104.96 551.424h78.848l104.96-133.888 104.96 133.888h78.848l-144.384-183.808 144.384-183.808h-78.848l-104.96 133.888-104.96-133.888H104.96l144.384 183.808-144.384 183.808z" fill="#01723E" p-id="6046"></path></svg>