<?xml version="1.0" standalone="no"?><!DOCTYPE svg PUBLIC "-//W3C//DTD SVG 1.1//EN"
        "http://www.w3.org/Graphics/SVG/1.1/DTD/svg11.dtd">
<svg t="1543321997742" class="icon" style="" viewBox="0 0 1024 1024" version="1.1" xmlns="http://www.w3.org/2000/svg"
     p-id="3887" width="200" height="200">
    <defs>
        <style type="text/css"></style>
    </defs>
    <path d="M160 32c-12 0-24.8 4.8-33.6 14.4S112 68 112 80v864c0 12 4.8 24.8 14.4 33.6C136 987.2 148 992 160 992h704c12 0 24.8-4.8 33.6-14.4C907.2 968 912 956 912 944V304L640 32H160z"
          fill="#FF5562" p-id="3888"></path>
    <path d="M912 304H688c-12 0-24.8-4.8-33.6-14.4-9.6-8.8-14.4-21.6-14.4-33.6V32l272 272z" fill="#FFBBC0"
          p-id="3889"></path>
    <path d="M669.6 491.2c0-1.6 0.8-4 0-6.4V369.6c0-4.8-2.4-8.8-5.6-12-4-3.2-8-4-12.8-3.2l-250.4 70.4c-7.2 1.6-12 7.2-12 14.4v275.2c-9.6-4-20.8-6.4-32.8-6.4-8.8 0-17.6 0.8-26.4 3.2-40.8 11.2-66.4 43.2-58.4 72.8 6.4 23.2 30.4 37.6 60.8 37.6 8.8 0 17.6-1.6 26.4-3.2 36.8-10.4 60.8-36.8 60-63.2 0.8-1.6 0.8-3.2 0.8-5.6V570.4l220-61.6v136c-9.6-4-20.8-6.4-32.8-6.4-8.8 0-17.6 0.8-26.4 3.2-40.8 11.2-66.4 43.2-58.4 72.8C528 737.6 552 752 582.4 752c8.8 0 17.6-0.8 26.4-3.2 36-9.6 60-36 60-62.4 0.8-1.6 0.8-3.2 0.8-5.6V491.2z m-250.4 48v-53.6l220-61.6v53.6l-220 61.6z"
          fill="#FFFFFF" p-id="3890"></path>
</svg>
