<?xml version="1.0" standalone="no"?><!DOCTYPE svg PUBLIC "-//W3C//DTD SVG 1.1//EN"
        "http://www.w3.org/Graphics/SVG/1.1/DTD/svg11.dtd">
<svg t="1543300132402" class="icon" style="" viewBox="0 0 1024 1024" version="1.1" xmlns="http://www.w3.org/2000/svg"
     p-id="2107" width="200" height="200">
    <defs>
        <style type="text/css"></style>
    </defs>
    <path d="M533.947184 38.36489h65.880106v88.119185c117.859409 0.660894 235.60867-1.211639 353.35793 0.660894 25.102953-2.533427 44.81962 16.962943 42.506492 42.07691 1.872533 216.993492-0.440596 434.097133 1.112505 651.090626-1.112505 22.250094 2.191965 46.923466-10.695466 66.640133-16.081751 11.455494-36.899909 10.023557-55.625236 10.904749-110.25913-0.550745-220.408111-0.330447-330.656225-0.330447v88.119185h-68.843113c-167.657764-30.621417-335.745108-58.709407-503.722304-88.119185-0.110149-256.977572 0-513.955144 0-770.822567 168.858388-29.519927 337.826924-58.268811 506.685311-88.339483z"
          fill="#2A5699" p-id="2108"></path>
    <path d="M599.816275 159.528769h363.491637v704.953477h-363.491637v-88.119185h286.38735v-44.059592h-286.38735v-55.07449h286.38735v-44.059593h-286.38735v-55.07449h286.38735v-44.059592h-286.38735v-55.074491h286.38735v-44.059592h-286.38735v-55.074491h286.38735v-44.059592h-286.38735v-55.07449h286.38735v-44.059593h-286.38735v-77.104286zM254.829667 354.162018c20.928306-1.211639 41.856613-2.092831 62.784919-3.19432 14.649814 74.350562 29.619061 148.590975 45.491529 222.61109 12.446835-76.443393 26.215457-152.666487 39.543484-228.999731 22.029796-0.771043 44.059592-1.982682 65.97924-3.30447-24.89367 106.734362-46.703168 214.349917-73.909966 320.423385-18.39488 9.582961-45.932125-0.440596-67.741623 1.10149-14.649814-72.90761-31.722906-145.38564-44.819621-218.645727-12.898446 71.156242-29.641091 141.651589-44.390039 212.367235a4187.754101 4187.754101 0 0 1-63.666111-3.866229c-18.284731-96.931103-39.763782-193.190297-56.836874-290.341698 18.835476-0.881192 37.792115-1.652235 56.627591-2.313129 11.33433 70.164901 24.221761 139.999355 34.146184 210.274404 15.508976-72.037433 31.37043-144.074867 46.791287-216.1123z"
          fill="#FFFFFF" p-id="2109"></path>
</svg>
