<?xml version="1.0" standalone="no"?><!DOCTYPE svg PUBLIC "-//W3C//DTD SVG 1.1//EN"
        "http://www.w3.org/Graphics/SVG/1.1/DTD/svg11.dtd">
<svg t="1582644951614" class="icon" viewBox="0 0 1024 1024" version="1.1" xmlns="http://www.w3.org/2000/svg" p-id="3842"
     width="200" height="200">
    <defs>
        <style type="text/css"></style>
    </defs>
    <path d="M692.906667 385.024c-11.605333-2.730667-23.210667-6.144-34.816-11.605333l-63.488 25.258666-5.461334 2.048h-5.461333c-8.874667 0-17.749333-4.096-23.210667-11.605333-5.461333-7.509333-6.826667-17.066667-4.778666-25.258667l8.874666-30.72-97.621333-19.797333v400.725333L901.12 402.090667l-105.130667-21.162667c-18.432 5.461333-38.229333 8.874667-59.392 8.874667-13.653333 0-28.672-1.365333-43.690666-4.778667z"
          fill="#A6DAFC" p-id="3843"></path>
    <path d="M512 502.442667v467.626666l389.802667-100.352V402.090667zM111.274667 413.696l356.352-100.352V580.266667z"
          fill="#568EC8" p-id="3844"></path>
    <path d="M111.274667 413.696v456.021333L512 970.069333V502.442667z" fill="#A6DAFC" p-id="3845"></path>
    <path d="M512 502.442667l389.802667-100.352L1024 546.816 645.802667 658.090667z" fill="#78C5FD" p-id="3846"></path>
    <path d="M111.274667 413.696l400.725333 88.746667-122.197333 167.253333L0 569.344z" fill="#CFF0FF"
          p-id="3847"></path>
    <path d="M886.784 160.426667c-2.730667-6.826667-6.144-13.653333-9.557333-20.48-1.365333-2.048-2.730667-4.096-4.096-6.826667-4.096-6.144-8.192-12.970667-13.653334-18.432s-10.24-11.605333-16.384-16.384c-2.048-2.048-4.096-3.413333-6.144-4.778667-8.192-6.826667-17.066667-12.288-25.941333-17.749333-2.048-1.365333-4.778667-2.730667-6.826667-3.413333-4.778667-2.048-9.557333-4.778667-15.018666-6.144-7.509333-2.730667-15.701333-5.461333-23.893334-6.826667-2.730667-0.682667-6.144-1.365333-8.874666-2.048-0.682667 0-2.048 0-2.730667-0.682667-2.048 0-4.096-0.682667-6.144-0.682666-1.365333 0-2.048 0-3.413333-0.682667-2.048 0-3.413333 0-5.461334-0.682667H727.04c-4.096 0-8.192 0-11.605333 0.682667h-2.048c-4.096 0.682667-8.192 0.682667-12.288 1.365333h-0.682667c-4.096 0.682667-7.509333 1.365333-11.605333 2.048-0.682667 0-1.365333 0-1.365334 0.682667-4.096 0.682667-7.509333 2.048-10.922666 3.413333-0.682667 0-1.365333 0.682667-2.048 0.682667-3.413333 1.365333-7.509333 2.730667-10.922667 4.096-0.682667 0-0.682667 0.682667-1.365333 0.682667-3.413333 1.365333-6.826667 3.413333-10.24 4.778666 0 0-0.682667 0-0.682667 0.682667-3.413333 2.048-6.826667 3.413333-10.24 5.461333-0.682667 0.682667-1.365333 0.682667-2.048 1.365334-3.413333 2.048-6.144 4.096-9.557333 6.144-0.682667 0.682667-1.365333 0.682667-1.365334 1.365333-3.413333 2.048-6.144 4.778667-8.874666 7.509333l-8.192 8.192-1.365334 1.365334c-2.730667 2.730667-4.778667 5.461333-7.509333 8.192-0.682667 0.682667-0.682667 1.365333-1.365333 1.365333-2.048 2.730667-4.778667 6.144-6.826667 8.874667 0 0.682667-0.682667 0.682667-0.682667 1.365333-2.048 3.413333-4.096 6.144-5.461333 9.557333 0 0.682667-0.682667 0.682667-0.682667 1.365334-2.048 3.413333-3.413333 6.826667-4.778666 10.24 0 0.682667-0.682667 1.365333-0.682667 2.048-1.365333 3.413333-2.730667 6.826667-4.096 10.922666 0 0.682667-0.682667 1.365333-0.682667 2.048-1.365333 4.096-2.048 7.509333-3.413333 11.605334-10.24 46.421333 2.730667 92.16 32.085333 127.658666L593.92 339.968l-9.557333 32.768v0.682667h0.682666l58.709334-23.210667 16.384-6.826667c6.144 3.413333 12.970667 6.144 19.797333 8.192s13.653333 4.778667 21.162667 6.144c2.730667 0.682667 6.144 1.365333 8.874666 2.048 0.682667 0 2.048 0 2.730667 0.682667 2.048 0 4.096 0.682667 6.144 0.682667 1.365333 0 2.048 0 3.413333 0.682666 2.048 0 3.413333 0 5.461334 0.682667H739.328c4.096 0 8.192 0 11.605333-0.682667h2.048c4.096-0.682667 8.192-0.682667 12.288-1.365333h0.682667c4.096-0.682667 7.509333-1.365333 11.605333-2.048 0.682667 0 1.365333 0 2.048-0.682667 4.096-0.682667 7.509333-2.048 10.922667-3.413333 0.682667 0 1.365333-0.682667 2.048-0.682667 3.413333-1.365333 7.509333-2.730667 10.922667-4.096 0.682667 0 0.682667-0.682667 1.365333-0.682666 3.413333-1.365333 6.826667-3.413333 10.24-4.778667 0 0 0.682667 0 0.682667-0.682667 3.413333-2.048 6.826667-3.413333 10.24-5.461333 0.682667-0.682667 1.365333-0.682667 2.048-1.365333 3.413333-2.048 6.144-4.096 9.557333-6.144 0.682667-0.682667 1.365333-0.682667 1.365333-1.365334 3.413333-2.048 6.144-4.778667 8.874667-7.509333l8.192-8.192 1.365333-1.365333c2.730667-2.730667 4.778667-5.461333 7.509334-8.192 0.682667-0.682667 0.682667-1.365333 1.365333-2.048 2.048-2.730667 4.778667-6.144 6.826667-8.874667 0-0.682667 0.682667-0.682667 0.682666-1.365333 2.048-3.413333 4.096-6.144 5.461334-9.557334 0-0.682667 0.682667-0.682667 0.682666-1.365333 2.048-3.413333 3.413333-6.826667 4.778667-10.24 0-0.682667 0.682667-1.365333 0.682667-2.048 1.365333-3.413333 2.730667-6.826667 4.096-10.922667 0-0.682667 0.682667-1.365333 0.682666-2.048 1.365333-4.096 2.048-7.509333 3.413334-11.605333 5.461333-28.672 2.730667-57.344-6.826667-83.285333z"
          fill="#F9DA3E" p-id="3848"></path>
    <path d="M739.328 167.936h48.469333v27.989333h-13.653333v-15.701333h-83.968v15.701333h-13.653333v-27.989333h48.469333c-1.365333-3.413333-3.413333-6.826667-4.778667-10.24l14.336-2.048c2.048 3.413333 3.413333 7.509333 4.778667 12.288z m37.546667 52.565333v12.288h-37.546667v25.258667h48.469333v12.970667H677.205333v-12.970667h48.469334v-25.258667h-37.546667v-12.288h88.746667z m-51.882667-24.576c-10.24 8.874667-22.528 16.384-37.546667 22.528l-5.461333-12.288c14.336-5.461333 25.941333-11.605333 34.816-19.797333l8.192 9.557333z m56.661333 10.922667l-7.509333 11.605333c-11.605333-9.557333-23.210667-17.066667-35.498667-22.528l6.826667-10.24c13.653333 6.144 25.258667 12.970667 36.181333 21.162667z"
          fill="#FFFFFF" p-id="3849"></path>
</svg>
