<?xml version="1.0" standalone="no"?><!DOCTYPE svg PUBLIC "-//W3C//DTD SVG 1.1//EN" "http://www.w3.org/Graphics/SVG/1.1/DTD/svg11.dtd"><svg t="1514189634329" class="icon" style="" viewBox="0 0 1219 1024" version="1.1" xmlns="http://www.w3.org/2000/svg" p-id="10648" xmlns:xlink="http://www.w3.org/1999/xlink" width="238.0859375" height="200"><defs><style type="text/css"></style></defs><path d="M1197.787429 327.192381a19.504762 19.504762 0 0 1 19.553523 19.407238v614.156191c0 34.913524-28.574476 63.24419-63.878095 63.24419H63.878095C28.623238 1024 0 995.718095 0 960.75581V346.599619a19.504762 19.504762 0 0 1 19.602286-19.358476h1178.185143z m-66.80381-213.089524C1179.550476 114.102857 1219.047619 153.209905 1219.047619 201.386667v80.213333H1.657905V88.259048C1.657905 39.497143 41.593905 0 90.794667 0h290.864762c17.408 0 33.987048 7.655619 45.104761 20.967619l78.214096 93.135238h626.005333z" fill="#23B7E5" p-id="10649"></path></svg>
