<?xml version="1.0" standalone="no"?><!DOCTYPE svg PUBLIC "-//W3C//DTD SVG 1.1//EN"
        "http://www.w3.org/Graphics/SVG/1.1/DTD/svg11.dtd">
<svg t="1514284130163" class="icon" style="" viewBox="0 0 1024 1024" version="1.1" xmlns="http://www.w3.org/2000/svg"
     p-id="1551" width="200" height="200">
    <defs>
        <style type="text/css"></style>
    </defs>
    <path d="M915.114667 1024H108.885333V0h587.776v218.112H914.773333V1024z m-785.066667-20.821333h763.904V238.933333H675.84V20.821333H129.706667v982.357334z"
          fill="#F90E09" p-id="1552"></path>
    <path d="M708.266667 10.581333L904.533333 206.848h-196.266666z" fill="#F90E09" p-id="1553"></path>
    <path d="M282.965333 792.576c33.450667-23.210667 55.637333-57.344 76.8-91.136-30.378667 25.941333-59.050667 54.954667-76.8 91.136z m396.629334-169.642667c31.402667 15.018667 65.877333 31.061333 101.376 21.504-24.576-29.696-67.584-21.504-101.376-21.504z m-246.101334 23.210667c45.397333-16.725333 91.818667-29.696 138.922667-39.594667-30.378667-26.965333-55.978667-58.368-76.458667-93.525333-16.725333 46.08-38.912 90.112-62.464 133.12z m67.925334-243.370667c14.677333-37.546667 19.114667-83.285333-5.802667-117.418666-7.168 38.912-4.096 79.189333 5.802667 117.418666z m-45.397334-105.130666c4.096-24.917333 35.84-29.696 55.637334-22.186667 12.288 7.850667 18.432 22.869333 18.773333 37.205333 1.365333 44.032-6.485333 87.381333-12.629333 130.730667-3.413333 20.138667 8.874667 38.229333 17.749333 55.296 21.845333 40.277333 52.224 76.458667 92.16 99.669333 48.128-5.802667 98.645333-12.970667 145.749333 2.389334 35.157333 11.946667 26.965333 77.141333-11.264 77.824-53.589333 2.730667-102.058667-23.893333-150.186666-43.349334-66.218667 4.778667-130.730667 24.917333-194.218667 44.032-28.672 46.762667-54.613333 98.986667-101.034667 130.730667-23.210667 18.090667-76.458667 3.072-64.512-32.085333 20.138667-49.152 70.314667-76.117333 114.346667-100.693334 12.629333-6.485333 19.797333-18.773333 26.282667-31.061333 30.037333-57.685333 60.074667-115.370667 84.309333-175.786667-12.629333-56.661333-31.061333-114.688-21.162667-172.714666z"
          fill="#F90E09" p-id="1554"></path>
</svg>
