<?xml version="1.0" standalone="no"?><!DOCTYPE svg PUBLIC "-//W3C//DTD SVG 1.1//EN"
        "http://www.w3.org/Graphics/SVG/1.1/DTD/svg11.dtd">
<svg t="1543300178225" class="icon" style="" viewBox="0 0 1024 1024" version="1.1" xmlns="http://www.w3.org/2000/svg"
     p-id="5733" width="200" height="200">
    <defs>
        <style type="text/css"></style>
    </defs>
    <path d="M537.372818 38.36489h62.454472v99.134083c117.738246 0.660894 235.60867-1.211639 353.236766 0.550745 25.334266-2.423278 45.172097 17.29339 42.627656 42.627655 1.872533 205.758296-0.440596 411.626741 1.10149 617.506201-1.10149 22.250094 2.20298 46.923466-10.574302 66.640134-16.081751 11.664777-36.999043 10.133706-55.834519 11.014898-110.148981-0.550745-220.297962-0.330447-330.557091-0.330447v110.148981h-68.523681c-167.856032-30.621417-336.06454-58.599258-504.041736-88.119185-0.110149-256.977572 0-513.955144 0-770.822567 169.970892-29.420793 339.93077-59.381316 510.110945-88.350498z"
          fill="#D24625" p-id="5734"></path>
    <path d="M599.82729 170.543667h363.491636v671.908783h-363.491636v-88.119185h264.357554v-44.059592h-264.357554v-55.074491h264.357554v-44.059592h-264.247405c-0.110149-21.5892-0.110149-43.1784-0.231313-64.767601 43.630011 13.53731 93.307202 13.217878 132.299941-13.008594 42.18706-25.003819 64.216856-72.698327 67.851772-120.271672-48.366417-0.330447-96.710805-0.220298-144.956059-0.220298-0.121164-47.914807 0.550745-95.829613-0.991341-143.634271-18.075448 3.524767-36.128866 7.269833-54.083149 11.125047v-109.818534z"
          fill="#FFFFFF" p-id="5735"></path>
    <path d="M677.041725 246.216017c76.553542 3.524767 140.880546 67.961921 144.956059 144.295165-48.366417 0.550745-96.710805 0.330447-145.066208 0.330447 0-48.245254-0.121164-96.490507 0.110149-144.625612z"
          fill="#D24625" p-id="5736"></path>
    <path d="M203.940838 329.378497c59.810897 2.863874 132.288926-23.682031 181.855967 21.148605 47.485226 57.607917 34.917227 163.571236-35.467972 198.047867-25.003819 12.777282-53.642554 11.014898-80.849351 10.133706-0.110149 43.068251-0.220298 86.136503-0.110149 129.19374-21.820513-1.872533-43.74016-3.745065-65.538644-5.507449-0.980326-117.628097-1.211639-235.377357 0.110149-353.016469z"
          fill="#FFFFFF" p-id="5737"></path>
    <path d="M269.380347 388.969096c21.699349-0.991341 48.575701-4.956704 63.214501 15.420857 12.567999 21.5892 11.89609 50.007637 1.442951 72.257732-12.567999 22.69069-40.986436 20.48771-62.895068 23.131286-2.313129-36.899909-2.092831-73.799817-1.762384-110.809875z"
          fill="#D24625" p-id="5738"></path>
</svg>
