<?xml version="1.0" standalone="no"?><!DOCTYPE svg PUBLIC "-//W3C//DTD SVG 1.1//EN"
        "http://www.w3.org/Graphics/SVG/1.1/DTD/svg11.dtd">
<svg t="1545064197737" class="icon" style="" viewBox="0 0 1024 1024" version="1.1" xmlns="http://www.w3.org/2000/svg"
     p-id="14227" width="200" height="200">
    <defs>
        <style type="text/css"></style>
    </defs>
    <path d="M759.725253 0H134.464646v1024h817.131314V191.870707z" fill="#02007A" p-id="14228"></path>
    <path d="M72.40404 708.525253h687.838384v258.585858H72.40404z" fill="#230091" p-id="14229"></path>
    <path d="M82.747475 718.868687h667.151515v237.89899H82.747475zM755.070707 5.171717l191.353535 191.353536h-191.353535z"
          fill="#FFFFFF" p-id="14230"></path>
    <path d="M506.828283 791.272727v93.090909h25.858586c28.444444 0 41.373737-12.929293 41.373737-45.511111s-12.929293-47.579798-41.373737-47.579798h-25.858586z m-25.858586-25.858586h51.717172c42.408081 0 67.232323 29.99596 67.232323 74.989899S575.612121 910.222222 532.686869 910.222222H480.969697v-144.808081z m-132.39596 104.468687c1.034343 26.375758 22.755556 42.408081 55.337374 42.408081 34.650505 0 55.854545-17.066667 55.854546-43.959596 0-21.20404-12.412121-33.09899-40.856566-39.822222l-16.549495-3.620202c-17.583838-4.137374-24.824242-9.826263-24.824242-19.135354 0-11.894949 10.860606-19.652525 26.892929-19.652525s27.410101 7.757576 28.444444 21.204041h24.307071c-0.517172-24.824242-21.20404-41.890909-52.751515-41.89091S351.676768 782.480808 351.676768 807.822222c0 20.169697 12.412121 33.09899 38.787878 38.787879l18.618182 4.137374c18.10101 4.137374 25.341414 10.343434 25.341414 20.169697 0 11.894949-11.894949 20.169697-28.961616 20.169697s-30.513131-8.791919-32.064646-21.721212l-24.824243 0.517171zM258.585859 788.686869v53.785858h20.686868c18.10101 0 31.030303-9.826263 31.030303-26.892929s-12.412121-26.892929-31.030303-26.892929h-20.686868z m-25.858586-23.272728h56.888889c28.444444 0 46.545455 20.686869 46.545454 49.131314s-17.583838 49.131313-46.545454 49.131313h-31.030303v46.545454h-25.858586v-144.808081z"
          fill="#230091" p-id="14231"></path>
    <path d="M415.806061 443.216162h-31.030303v137.567676H321.163636V196.525253h93.090909c91.022222 0 140.670707 35.684848 140.670708 122.052525 0.517172 103.434343-92.573737 124.638384-139.119192 124.638384z m-5.688889-192.905051c-6.206061 0-14.99798 0.517172-26.89293 1.551515V387.878788h36.202021C461.834343 387.878788 491.313131 366.157576 491.313131 312.888889c0-40.856566-32.064646-62.577778-81.195959-62.577778z m258.068687 337.19596c70.852525 0 96.711111-50.165657 96.711111-84.816162 0-54.820202-35.684848-67.749495-66.19798-87.40202-25.858586-17.066667-49.648485-23.272727-49.648485-40.856566 0-22.755556 15.515152-27.410101 36.20202-27.410101 25.858586 0 54.820202 2.068687 67.232323 16.032323V306.682828c-12.929293-10.343434-37.236364-13.446465-68.783838-13.446464-67.749495 0-93.608081 44.993939-93.608081 84.29899 0 50.682828 33.616162 65.680808 66.19798 83.781818 21.20404 11.894949 46.545455 20.686869 46.545455 44.476767 0 13.963636-8.791919 27.927273-37.753536 27.927273-26.892929 0-59.991919-10.343434-74.989899-23.789899v59.991919c13.446465 10.343434 40.339394 17.583838 78.09293 17.583839z"
          fill="#7AB7FF" p-id="14232"></path>
</svg>
