<?xml version="1.0" standalone="no"?><!DOCTYPE svg PUBLIC "-//W3C//DTD SVG 1.1//EN"
        "http://www.w3.org/Graphics/SVG/1.1/DTD/svg11.dtd">
<svg t="1543300142282" class="icon" style="" viewBox="0 0 1024 1024" version="1.1" xmlns="http://www.w3.org/2000/svg"
     p-id="2233" width="200" height="200">
    <defs>
        <style type="text/css"></style>
    </defs>
    <path d="M534.310676 38.36489h65.428495v88.119185c110.25913 0 220.507245 0.220298 330.766374-0.330447 18.615178 0.771043 39.113903-0.550745 55.305803 10.574302 11.345345 16.302049 10.023557 37.010058 10.783586 55.746399-0.550745 191.218631-0.319432 382.327112-0.220298 573.435594-0.550745 32.053353 2.974022 64.767601-3.745066 96.380358-4.405959 22.910988-31.943204 23.461733-50.338084 24.232776-114.114344 0.330447-228.338837-0.220298-342.56333 0v99.134083h-68.402517c-167.867047-30.511268-336.075555-58.709407-504.151885-88.119185v-770.932716c169.0897-29.420793 338.168386-58.389975 507.136922-88.240349z"
          fill="#207245" p-id="2234"></path>
    <path d="M599.739171 159.528769h363.491636v693.938579h-363.491636v-66.089389h88.119184v-77.104286h-88.119184v-44.059592h88.119184v-77.104287h-88.119184v-44.059592h88.119184v-77.104287h-88.119184v-44.059592h88.119184v-77.104287h-88.119184v-44.059592h88.119184v-77.104287h-88.119184v-66.089388z"
          fill="#FFFFFF" p-id="2235"></path>
    <path d="M731.917948 225.618157h154.208573v77.104287h-154.208573v-77.104287z" fill="#207245" p-id="2236"></path>
    <path d="M353.44605 328.827752c24.89367-1.762384 49.897488-3.304469 74.901307-4.516108-29.409778 60.251492-58.929705 120.502985-88.879213 180.53418 30.29097 61.683429 61.242833 122.926263 91.632937 184.609692-26.545904-1.553101-52.98166-3.19432-79.527564-5.066854-18.725327-45.932125-41.526166-90.322164-54.964342-138.358134-14.969246 44.731501-36.349164 86.918561-53.521389 130.74684-24.122627-0.330447-48.256268-1.321788-72.367881-2.313129 28.308288-55.404937 55.625235-111.250471 84.814716-166.324961-24.783521-56.726725-52.001334-112.35196-77.544883-168.748238 24.232776-1.431937 48.454537-2.863874 72.698327-4.185662 16.412198 43.068251 34.366482 85.585758 47.925822 129.7555 14.506621-46.802302 36.216985-90.861894 54.832163-136.133126z"
          fill="#FFFFFF" p-id="2237"></path>
    <path d="M731.917948 346.782036h154.208573v77.104287h-154.208573v-77.104287zM731.917948 467.945915h154.208573v77.104287h-154.208573v-77.104287zM731.917948 589.109794h154.208573v77.104287h-154.208573v-77.104287zM731.917948 710.273673h154.208573v77.104286h-154.208573v-77.104286z"
          fill="#207245" p-id="2238"></path>
</svg>
